<?xml version="1.0" standalone="no"?><!DOCTYPE svg PUBLIC "-//W3C//DTD SVG 1.1//EN" "http://www.w3.org/Graphics/SVG/1.1/DTD/svg11.dtd"><svg class="icon" width="200px" height="200.00px" viewBox="0 0 1024 1024" version="1.1" xmlns="http://www.w3.org/2000/svg"><path d="M637.866667 648.533333c-14.933333-23.466667-38.4-42.666667-64-51.2-14.933333-6.4-29.866667-8.533333-44.8-8.533333-72.533333 0-130.133333 57.6-130.133334 130.133333 0 68.266667 53.333333 125.866667 121.6 130.133334h334.933334c70.4-2.133333 125.866667-59.733333 125.866666-130.133334 0-72.533333-57.6-130.133333-130.133333-130.133333h-14.933333v-14.933333c0-72.533333-57.6-130.133333-130.133334-130.133334-72.533333 0-130.133333 57.6-130.133333 130.133334 0 8.533333 0 14.933333 2.133333 23.466666" fill="#29bf88" /><path d="M746.666667 810.666667h-2.133334-486.4C138.666667 800 42.666667 697.6 42.666667 576c0-130.133333 104.533333-234.666667 234.666666-234.666667h21.333334c10.666667-119.466667 110.933333-213.333333 234.666666-213.333333 121.6 0 224 93.866667 234.666667 213.333333 119.466667 10.666667 213.333333 110.933333 213.333333 234.666667 0 128-100.266667 230.4-226.133333 234.666667H746.666667z m-10.666667-85.333334zM277.333333 426.666667c-83.2 0-149.333333 66.133333-149.333333 149.333333 0 76.8 59.733333 142.933333 138.666667 149.333333h486.4c81.066667-4.266667 142.933333-68.266667 142.933333-149.333333 0-83.2-66.133333-149.333333-149.333333-149.333333h-17.066667c-12.8 2.133333-27.733333-2.133333-36.266667-12.8-8.533333-8.533333-14.933333-23.466667-12.8-36.266667v-17.066667c0-83.2-66.133333-149.333333-149.333333-149.333333s-149.333333 66.133333-149.333333 149.333333v4.266667c36.266667 19.2 68.266667 46.933333 91.733333 83.2 12.8 19.2 6.4 46.933333-12.8 59.733333-19.2 12.8-46.933333 6.4-59.733333-12.8-17.066667-27.733333-42.666667-49.066667-72.533334-59.733333h-2.133333c-14.933333-6.4-32-8.533333-49.066667-8.533333z" fill="#034b2b" /></svg>