<?xml version="1.0" standalone="no"?><!DOCTYPE svg PUBLIC "-//W3C//DTD SVG 1.1//EN" "http://www.w3.org/Graphics/SVG/1.1/DTD/svg11.dtd"><svg class="icon" width="200px" height="200.00px" viewBox="0 0 1024 1024" version="1.1" xmlns="http://www.w3.org/2000/svg"><path d="M942.933333 876.8H465.066667c-14.933333 0-25.6-12.8-25.6-25.6V480c0-14.933333 12.8-25.6 25.6-25.6h123.733333c8.533333 0 17.066667 4.266667 21.333333 10.666667l32 44.8c4.266667 6.4 12.8 10.666667 21.333334 10.666666h277.333333c14.933333 0 25.6 12.8 25.6 25.6v305.066667c2.133333 14.933333-8.533333 25.6-23.466667 25.6z" fill="#29bf88" /><path d="M307.2 256l38.4 53.333333c23.466667 34.133333 61.866667 53.333333 104.533333 53.333334h405.333334v405.333333H170.666667V256h136.533333m21.333333-85.333333H128c-23.466667 0-42.666667 19.2-42.666667 42.666666v597.333334c0 23.466667 19.2 42.666667 42.666667 42.666666h768c23.466667 0 42.666667-19.2 42.666667-42.666666V320c0-23.466667-19.2-42.666667-42.666667-42.666667H448c-12.8 0-25.6-6.4-34.133333-17.066666L362.666667 187.733333c-8.533333-10.666667-21.333333-17.066667-34.133334-17.066666z" fill="#034b2b" /><path d="M512 736c-23.466667 0-42.666667-19.2-42.666667-42.666667v-256c0-23.466667 19.2-42.666667 42.666667-42.666666s42.666667 19.2 42.666667 42.666666v256c0 23.466667-19.2 42.666667-42.666667 42.666667z" fill="#034b2b" /><path d="M640 608H384c-23.466667 0-42.666667-19.2-42.666667-42.666667s19.2-42.666667 42.666667-42.666666h256c23.466667 0 42.666667 19.2 42.666667 42.666666s-19.2 42.666667-42.666667 42.666667z" fill="#034b2b" /></svg>