<?xml version="1.0" standalone="no"?><!DOCTYPE svg PUBLIC "-//W3C//DTD SVG 1.1//EN" "http://www.w3.org/Graphics/SVG/1.1/DTD/svg11.dtd"><svg class="icon" width="200px" height="200.00px" viewBox="0 0 1024 1024" version="1.1" xmlns="http://www.w3.org/2000/svg"><path d="M716.175946 239.717495m105.594613 105.594613l0 0q105.594613 105.594613 0 211.189225l-211.189226 211.189226q-105.594613 105.594613-211.189225 0l0 0q-105.594613-105.594613 0-211.189226l211.189225-211.189225q105.594613-105.594613 211.189226 0Z" fill="#ffc500" /><path d="M544.277333 292.202667a187.968 187.968 0 0 1 270.72 0c79.594667 81.770667 68.608 224.362667-32.853333 320.554666a21.333333 21.333333 0 0 1-29.354667-30.954666c84.949333-80.533333 93.845333-195.925333 31.637334-259.84a145.216 145.216 0 0 0-203.221334-6.144l-6.357333 6.144-22.101333 22.677333a64 64 0 0 1-85.696 3.242667l-4.8-4.458667-20.906667-21.461333a145.301333 145.301333 0 0 0-209.557333 0c-60.714667 62.378667-53.184 168 29.226666 252.437333l7.957334 7.850667 194.325333 195.669333a64 64 0 0 0 90.368 0.448l72.149333-71.232a21.333333 21.333333 0 0 1 29.973334 30.378667l-72.149334 71.210666a106.666667 106.666667 0 0 1-145.066666 4.48l-5.546667-5.205333-193.92-195.285333C133.461333 512 121.045333 374.613333 201.237333 292.202667a187.904 187.904 0 0 1 263.594667-6.954667l7.125333 6.954667 20.885334 21.461333a21.333333 21.333333 0 0 0 27.178666 2.837333l3.413334-2.837333 20.864-21.461333z" fill="#3654fd" /></svg>