<?xml version="1.0" standalone="no"?><!DOCTYPE svg PUBLIC "-//W3C//DTD SVG 1.1//EN" "http://www.w3.org/Graphics/SVG/1.1/DTD/svg11.dtd"><svg class="icon" width="200px" height="200.00px" viewBox="0 0 1024 1024" version="1.1" xmlns="http://www.w3.org/2000/svg"><path d="M170.666667 320m234.666666 0l234.666667 0q234.666667 0 234.666667 234.666667l0 0q0 234.666667-234.666667 234.666666l-234.666667 0q-234.666667 0-234.666666-234.666666l0 0q0-234.666667 234.666666-234.666667Z" fill="#ffc500" /><path d="M462.378667 234.666667a21.333333 21.333333 0 0 1 3.84 42.325333l-3.84 0.341333H384c-129.6 0-234.666667 105.066667-234.666667 234.666667 0 126.442667 100.010667 229.546667 225.237334 234.474667L384 746.666667h42.666667v-43.392a8.533333 8.533333 0 0 1 1.130666-4.266667l1.365334-1.770667a8.533333 8.533333 0 0 1 9.856-1.6l2.218666 1.6 64.725334 64.725334a8.533333 8.533333 0 0 1 1.6 9.856l-1.6 2.218666-64.725334 64.725334a8.533333 8.533333 0 0 1-14.272-3.754667L426.666667 832.725333V789.333333h-42.666667c-153.173333 0-277.333333-124.16-277.333333-277.333333 0-149.845333 118.826667-271.914667 267.392-277.162667L384 234.666667h78.378667zM640 320.725333a8.533333 8.533333 0 0 1-14.570667 6.037334l-64.725333-64.725334a8.533333 8.533333 0 0 1 0-12.074666l64.725333-64.725334a8.533333 8.533333 0 0 1 14.570667 6.037334V234.666667c153.173333 0 277.333333 124.16 277.333333 277.333333 0 149.845333-118.826667 271.914667-267.392 277.162667L640 789.333333h-42.666667a21.333333 21.333333 0 0 1-3.84-42.325333L597.333333 746.666667h42.666667c129.6 0 234.666667-105.066667 234.666667-234.666667s-105.066667-234.666667-234.666667-234.666667v43.392z" fill="#3654fd" /></svg>