<?xml version="1.0" standalone="no"?><!DOCTYPE svg PUBLIC "-//W3C//DTD SVG 1.1//EN" "http://www.w3.org/Graphics/SVG/1.1/DTD/svg11.dtd"><svg class="icon" width="200px" height="200.00px" viewBox="0 0 1024 1024" version="1.1" xmlns="http://www.w3.org/2000/svg"><path d="M704 682.666667H341.333333c-23.466667 0-42.666667-19.2-42.666666-42.666667V384c0-23.466667 19.2-42.666667 42.666666-42.666667h362.666667c23.466667 0 42.666667 19.2 42.666667 42.666667v256c0 23.466667-19.2 42.666667-42.666667 42.666667z" fill="#29bf88" /><path d="M844.8 439.466667c-23.466667 0-42.666667-19.2-42.666667-42.666667v-46.933333c0-70.4-57.6-128-128-128h-46.933333c-23.466667 0-42.666667-19.2-42.666667-42.666667s19.2-42.666667 42.666667-42.666667h46.933333c117.333333 0 213.333333 96 213.333334 213.333334v46.933333c0 23.466667-19.2 42.666667-42.666667 42.666667zM674.133333 887.466667h-46.933333c-23.466667 0-42.666667-19.2-42.666667-42.666667s19.2-42.666667 42.666667-42.666667h46.933333c70.4 0 128-57.6 128-128v-46.933333c0-23.466667 19.2-42.666667 42.666667-42.666667s42.666667 19.2 42.666667 42.666667v46.933333c0 117.333333-96 213.333333-213.333334 213.333334zM179.2 439.466667c-23.466667 0-42.666667-19.2-42.666667-42.666667v-46.933333c0-117.333333 96-213.333333 213.333334-213.333334h46.933333c23.466667 0 42.666667 19.2 42.666667 42.666667s-19.2 42.666667-42.666667 42.666667h-46.933333c-70.4 0-128 57.6-128 128v46.933333c0 23.466667-19.2 42.666667-42.666667 42.666667zM396.8 887.466667h-46.933333c-117.333333 0-213.333333-96-213.333334-213.333334v-46.933333c0-23.466667 19.2-42.666667 42.666667-42.666667s42.666667 19.2 42.666667 42.666667v46.933333c0 70.4 57.6 128 128 128h46.933333c23.466667 0 42.666667 19.2 42.666667 42.666667s-19.2 42.666667-42.666667 42.666667zM772.266667 554.666667H245.333333c-23.466667 0-42.666667-19.2-42.666666-42.666667s19.2-42.666667 42.666666-42.666667h526.933334c23.466667 0 42.666667 19.2 42.666666 42.666667s-19.2 42.666667-42.666666 42.666667z" fill="#034b2b" /></svg>