<?xml version="1.0" standalone="no"?><!DOCTYPE svg PUBLIC "-//W3C//DTD SVG 1.1//EN" "http://www.w3.org/Graphics/SVG/1.1/DTD/svg11.dtd"><svg class="icon" width="200px" height="199.80px" viewBox="0 0 1025 1024" version="1.1" xmlns="http://www.w3.org/2000/svg"><path d="M512.61025 48.820024a463.790226 463.790226 0 1 0 463.790227 463.790226A463.790226 463.790226 0 0 0 512.61025 48.820024z m0 854.350417a390.560191 390.560191 0 1 1 390.560191-390.560191 390.560191 390.560191 0 0 1-390.560191 390.560191z m166.720382-414.970203l-120.341359-70.300834-127.908463-74.694636a22.945411 22.945411 0 0 0-32.465315 24.410011v288.526341a22.945411 22.945411 0 0 0 32.465315 24.410012l127.908463-74.694636 120.341359-70.056734a28.559714 28.559714 0 0 0 0-47.599524z" /></svg>