<?xml version="1.0" standalone="no"?><!DOCTYPE svg PUBLIC "-//W3C//DTD SVG 1.1//EN" "http://www.w3.org/Graphics/SVG/1.1/DTD/svg11.dtd"><svg class="icon" width="200px" height="200.00px" viewBox="0 0 1024 1024" version="1.1" xmlns="http://www.w3.org/2000/svg"><path d="M385.493333 324.053333c111.936 0 156.373333 52.992 186.944 173.44l9.834667 41.216c22.144 91.136 41.493333 120.384 94.72 122.346667l6.08 0.106667h209.386667a21.333333 21.333333 0 0 1 3.84 42.325333l-3.84 0.341333H683.093333c-84.906667 0-114.709333-42.304-142.165333-154.666666l-7.146667-30.272c-25.770667-108.032-56-149.482667-139.733333-152.042667l-8.533333-0.128H149.333333a21.333333 21.333333 0 0 1-3.84-42.304L149.333333 324.053333h236.16z" fill="#3654fd" /><path d="M524.117333 607.765333a21.333333 21.333333 0 0 1 4.970667 29.76c-29.205333 40.917333-72.106667 63.552-132.16 66.069334l-11.456 0.234666L170.666667 703.808 170.666667 747.392a8.533333 8.533333 0 0 1-14.570667 6.037333l-64.725333-64.725333a8.533333 8.533333 0 0 1 0-12.074667l64.725333-64.725333a8.533333 8.533333 0 0 1 14.570667 6.037333v43.2l214.826666 0.021334c52.565333 0 86.037333-16.426667 108.864-48.426667a21.333333 21.333333 0 0 1 29.76-4.970667zM861.866667 268.074667a8.533333 8.533333 0 0 1 6.037333 2.496l64.725333 64.725333a8.533333 8.533333 0 0 1 0 12.074667l-64.725333 64.725333a8.533333 8.533333 0 0 1-14.570667-6.037333l-0.042666-39.338667h-170.24c-34.56 0-55.914667 12.352-71.594667 38.058667a21.333333 21.333333 0 0 1-36.416-22.229334c21.845333-35.84 54.016-55.893333 98.88-58.24l9.152-0.256h170.24L853.333333 276.608c0-4.714667 3.84-8.533333 8.533334-8.533333z" fill="#ffc500" /></svg>